<?xml version="1.0" standalone="no"?>
<!DOCTYPE svg PUBLIC "-//W3C//DTD SVG 20010904//EN"
 "http://www.w3.org/TR/2001/REC-SVG-20010904/DTD/svg10.dtd">
<svg version="1.0" xmlns="http://www.w3.org/2000/svg"
 width="31.000000pt" height="28.000000pt" viewBox="0 0 31.000000 28.000000"
 preserveAspectRatio="xMidYMid meet">

<g transform="translate(0.000000,28.000000) scale(0.100000,-0.100000)"
fill="#000000" stroke="none">
<path d="M15 260 c-3 -6 1 -12 9 -15 9 -3 22 -7 29 -9 6 -2 20 -28 30 -57 33
-95 40 -102 100 -94 71 10 83 18 102 70 26 66 15 75 -99 75 -79 0 -94 3 -109
20 -18 21 -52 27 -62 10z m255 -64 c0 -7 -5 -27 -11 -44 -8 -24 -18 -31 -47
-37 -20 -3 -45 -8 -55 -11 -17 -5 -31 18 -51 84 -7 22 -6 22 78 22 66 0 86 -3
86 -14z"/>
<path d="M93 44 c-8 -21 13 -42 28 -27 13 13 5 43 -11 43 -6 0 -13 -7 -17 -16z"/>
<path d="M231 46 c-9 -10 -8 -16 4 -26 19 -16 41 1 32 24 -8 20 -21 20 -36 2z"/>
</g>
</svg>
