<?xml version="1.0" standalone="no"?>
<!DOCTYPE svg PUBLIC "-//W3C//DTD SVG 20010904//EN"
 "http://www.w3.org/TR/2001/REC-SVG-20010904/DTD/svg10.dtd">
<svg version="1.0" xmlns="http://www.w3.org/2000/svg"
 width="512.000000pt" height="512.000000pt" viewBox="0 0 512.000000 512.000000"
 preserveAspectRatio="xMidYMid meet">
<metadata>
Created by potrace 1.15, written by Peter Selinger 2001-2017
</metadata>
<g transform="translate(0.000000,512.000000) scale(0.100000,-0.100000)"
fill="#000000" stroke="none">
<path d="M3583 4766 c-93 -30 -142 -72 -514 -445 -356 -355 -379 -380 -414
-453 -66 -135 -57 -262 28 -389 20 -30 201 -219 404 -420 324 -322 376 -370
433 -398 127 -61 223 -61 350 0 58 28 108 75 446 413 364 364 383 385 420 460
36 74 39 86 39 165 -1 73 -5 96 -30 151 -26 60 -61 98 -419 458 -364 366 -396
396 -465 430 -65 32 -85 37 -155 39 -48 2 -98 -3 -123 -11z m202 -275 c75 -44
688 -662 714 -721 51 -112 46 -119 -352 -517 -403 -405 -416 -414 -526 -361
-67 31 -692 654 -726 722 -31 63 -31 104 -1 164 31 59 661 690 721 721 56 30
110 27 170 -8z" style="fill:#0e2a42"/>
<path d="M725 4636 c-138 -44 -227 -134 -260 -263 -14 -53 -15 -146 -13 -700
l3 -639 38 -76 c42 -87 92 -136 177 -177 l55 -26 680 0 680 0 58 29 c68 35
150 118 180 183 22 48 22 49 22 728 l0 680 -32 66 c-39 79 -102 140 -181 177
l-57 27 -655 2 c-509 2 -664 -1 -695 -11z m1271 -255 c23 -10 54 -36 70 -57
29 -37 29 -38 36 -228 3 -105 7 -353 7 -552 1 -396 -4 -436 -56 -486 -61 -59
-53 -58 -653 -58 -527 0 -552 1 -589 20 -48 24 -87 70 -101 118 -14 50 -14
1074 0 1124 14 50 55 97 105 119 37 17 78 19 590 19 516 0 553 -2 591 -19z" style="fill:#0e2a42"/>
<path d="M722 2354 c-29 -7 -67 -21 -84 -30 -59 -30 -134 -112 -164 -177 l-29
-62 0 -670 0 -670 33 -67 c40 -82 119 -157 200 -190 l57 -23 650 0 650 0 58
23 c74 30 151 91 188 150 60 95 60 86 57 798 l-3 649 -29 62 c-49 106 -151
188 -264 212 -85 18 -1251 14 -1320 -5z m1253 -253 c49 -22 91 -69 105 -119 8
-25 10 -214 8 -588 l-3 -550 -28 -43 c-55 -83 -36 -81 -666 -81 -545 0 -555 0
-599 21 -26 13 -54 38 -70 62 l-27 41 -3 540 c-2 298 0 560 3 584 8 52 53 108
110 133 37 17 79 19 585 19 507 0 548 -2 585 -19z" style="fill:#0e2a42"/>
<path d="M3034 2360 c-104 -21 -211 -107 -262 -209 l-27 -56 0 -675 0 -675 33
-67 c40 -82 119 -157 200 -190 l57 -23 610 -3 c419 -2 630 0 675 8 127 22 234
103 288 218 l27 57 0 670 0 670 -27 57 c-32 68 -96 140 -156 175 -87 51 -109
53 -767 52 -335 -1 -629 -5 -651 -9z m1242 -259 c23 -10 54 -36 70 -57 l29
-37 3 -571 c1 -314 0 -581 -3 -593 -8 -33 -65 -94 -102 -109 -26 -11 -143 -14
-585 -14 -622 0 -605 -1 -664 76 l-29 37 -3 571 c-1 314 0 581 3 593 8 32 64
94 100 109 24 10 149 13 585 13 521 1 558 -1 596 -18z" style="fill:#0e2a42"/>
</g>
</svg>
