<?xml version="1.0" standalone="no"?>
<!DOCTYPE svg PUBLIC "-//W3C//DTD SVG 20010904//EN"
 "http://www.w3.org/TR/2001/REC-SVG-20010904/DTD/svg10.dtd">
<svg version="1.0" xmlns="http://www.w3.org/2000/svg"
 width="80.000000pt" height="78.000000pt" viewBox="0 0 80.000000 78.000000"
 preserveAspectRatio="xMidYMid meet">

<g transform="translate(0.000000,78.000000) scale(0.100000,-0.100000)"
fill="#000000" stroke="none">
<path d="M355 719 c-27 -21 -53 -39 -57 -39 -5 0 -8 14 -8 30 0 29 -2 30 -45
30 l-45 0 0 -69 0 -69 -86 -64 -85 -63 45 -3 46 -3 0 -155 0 -154 114 0 115 0
-9 31 c-10 33 -17 44 -67 102 -30 33 -33 44 -33 98 0 33 7 73 15 88 20 39 68
78 113 92 92 27 205 -50 213 -146 5 -70 -1 -92 -41 -138 -34 -38 -70 -101 -70
-122 0 -3 52 -5 115 -5 l115 0 0 154 0 155 40 3 40 3 -97 75 c-126 97 -275
210 -277 209 0 0 -23 -18 -51 -40z"/>
<path d="M400 540 c0 -5 9 -11 20 -11 32 -2 34 -3 61 -24 31 -24 49 -56 49
-84 0 -12 5 -21 10 -21 21 0 10 59 -17 91 -37 43 -123 78 -123 49z"/>
<path d="M530 365 c0 -8 5 -15 10 -15 6 0 10 7 10 15 0 8 -4 15 -10 15 -5 0
-10 -7 -10 -15z"/>
<path d="M350 120 c0 -18 7 -20 55 -20 48 0 55 2 55 20 0 18 -7 20 -55 20 -48
0 -55 -2 -55 -20z"/>
<path d="M350 60 c0 -11 7 -20 15 -20 8 0 15 -4 15 -10 0 -5 11 -10 25 -10 14
0 25 5 25 10 0 6 7 10 15 10 8 0 15 9 15 20 0 18 -7 20 -55 20 -48 0 -55 -2
-55 -20z"/>
</g>
</svg>
