<?xml version="1.0" standalone="no"?>
<!DOCTYPE svg PUBLIC "-//W3C//DTD SVG 20010904//EN"
 "http://www.w3.org/TR/2001/REC-SVG-20010904/DTD/svg10.dtd">
<svg version="1.0" xmlns="http://www.w3.org/2000/svg"
 width="229.000000pt" height="330.000000pt" viewBox="0 0 229.000000 330.000000"
 preserveAspectRatio="xMidYMid meet">

<g transform="translate(0.000000,330.000000) scale(0.100000,-0.100000)"
fill="#000000" stroke="none">
<path d="M948 3214 c-42 -7 -113 -27 -158 -43 -552 -202 -844 -799 -663 -1356
30 -94 76 -188 144 -296 75 -120 148 -293 188 -446 16 -61 62 -103 112 -103
76 0 129 45 129 110 0 57 -54 235 -106 350 -26 58 -81 161 -122 230 -42 69
-85 150 -98 180 -57 140 -71 358 -33 509 48 189 144 337 298 460 419 331 1055
175 1276 -312 58 -129 70 -186 69 -347 0 -128 -3 -155 -27 -233 -29 -94 -69
-179 -123 -264 -98 -153 -224 -472 -224 -566 0 -99 123 -155 197 -90 25 23 39
53 74 163 40 126 145 355 198 429 52 73 119 249 141 372 14 79 15 283 0 372
-12 79 -62 231 -98 302 -152 301 -439 516 -772 579 -101 19 -296 20 -402 0z"/>
<path d="M553 588 c-45 -12 -73 -51 -73 -103 0 -53 28 -91 79 -106 102 -31
184 93 114 171 -33 36 -76 50 -120 38z"/>
<path d="M1288 592 l-146 -3 -31 -35 c-35 -39 -40 -78 -16 -123 29 -57 54 -61
364 -61 302 0 332 4 365 51 34 49 5 152 -46 164 -31 6 -307 11 -490 7z"/>
<path d="M809 559 c-78 -84 7 -215 116 -179 68 22 94 94 60 160 -20 38 -43 50
-100 50 -40 0 -52 -5 -76 -31z"/>
</g>
</svg>
