<?xml version="1.0" standalone="no"?>
<!DOCTYPE svg PUBLIC "-//W3C//DTD SVG 20010904//EN"
 "http://www.w3.org/TR/2001/REC-SVG-20010904/DTD/svg10.dtd">
<svg version="1.0" xmlns="http://www.w3.org/2000/svg"
 width="73.000000pt" height="105.000000pt" viewBox="0 0 73.000000 105.000000"
 preserveAspectRatio="xMidYMid meet">

<g transform="translate(0.000000,105.000000) scale(0.100000,-0.100000)"
fill="#000000" stroke="none">
<path d="M301 1020 c-103 -22 -195 -92 -241 -185 -22 -43 -25 -64 -25 -151 0
-101 0 -102 46 -190 26 -49 52 -108 60 -132 9 -30 19 -44 35 -48 62 -16 56 50
-18 194 -50 99 -53 107 -53 180 0 66 4 84 27 123 33 56 77 95 137 122 54 24
157 20 215 -8 91 -44 150 -138 151 -240 0 -53 -6 -73 -54 -169 -59 -119 -76
-191 -46 -202 24 -10 47 7 58 42 5 16 32 76 60 133 51 103 52 106 52 195 0 79
-4 98 -28 147 -67 137 -230 219 -376 189z"/>
<path d="M161 267 c-24 -29 17 -70 46 -46 8 7 13 22 11 33 -4 25 -40 33 -57
13z"/>
<path d="M257 273 c-12 -11 -8 -40 7 -52 28 -23 68 17 45 45 -12 15 -41 19
-52 7z"/>
<path d="M357 273 c-13 -12 -7 -51 9 -57 9 -3 55 -6 104 -6 67 0 92 4 104 16
19 19 20 26 4 42 -13 13 -209 18 -221 5z"/>
<path d="M162 178 c-26 -26 1 -65 38 -53 32 10 20 65 -15 65 -6 0 -16 -5 -23
-12z"/>
<path d="M260 176 c-27 -33 18 -72 48 -42 13 13 14 20 6 34 -15 23 -38 26 -54
8z"/>
<path d="M362 181 c-8 -4 -12 -19 -10 -32 3 -23 6 -24 110 -27 98 -2 108 -1
117 17 21 37 -10 51 -112 51 -51 0 -98 -4 -105 -9z"/>
<path d="M157 76 c-11 -28 4 -47 32 -44 20 2 26 8 26 28 0 20 -6 26 -26 28
-17 2 -29 -3 -32 -12z"/>
<path d="M254 75 c-10 -25 4 -45 30 -45 25 0 39 20 30 45 -8 19 -53 19 -60 0z"/>
<path d="M354 75 c-15 -39 1 -45 115 -45 91 0 110 3 115 16 13 35 -12 44 -121
44 -83 0 -105 -3 -109 -15z"/>
</g>
</svg>
