<?xml version="1.0" standalone="no"?>
<!DOCTYPE svg PUBLIC "-//W3C//DTD SVG 20010904//EN"
 "http://www.w3.org/TR/2001/REC-SVG-20010904/DTD/svg10.dtd">
<svg version="1.0" xmlns="http://www.w3.org/2000/svg"
 width="1948.000000pt" height="392.000000pt" viewBox="0 0 1948.000000 392.000000"
 preserveAspectRatio="xMidYMid meet">

<g transform="translate(0.000000,392.000000) scale(0.100000,-0.100000)"
fill="#000000" stroke="none">
<path d="M1220 3796 c-161 -29 -265 -65 -408 -141 -371 -197 -630 -559 -698
-973 -21 -129 -14 -360 15 -486 59 -255 180 -476 358 -652 84 -83 221 -187
300 -228 l33 -17 0 -269 0 -270 128 0 c70 0 346 -3 613 -6 l487 -7 -2 273 -1
273 65 39 c209 127 348 267 474 478 269 452 236 1040 -84 1470 -88 119 -251
265 -385 346 -108 66 -268 129 -405 159 -102 23 -389 29 -490 11z m445 -111
c259 -54 457 -159 632 -337 117 -118 150 -162 217 -290 210 -397 193 -850 -45
-1235 -104 -166 -302 -344 -487 -437 l-52 -27 2 -242 3 -242 -120 -6 c-66 -3
-291 -5 -500 -5 l-380 1 -3 250 -2 250 -77 40 c-209 110 -413 317 -521 530
-86 171 -126 346 -125 550 1 212 43 379 141 568 115 220 289 393 512 510 150
79 249 109 455 141 58 9 271 -3 350 -19z"/>
<path d="M1252 3554 c-409 -68 -752 -376 -866 -777 -90 -312 -37 -633 148
-911 102 -152 242 -272 424 -363 l112 -57 0 -223 0 -223 218 -2 c119 -1 282
-2 362 -2 l145 -1 3 227 2 227 83 39 c157 74 292 177 392 301 274 339 323 795
128 1186 -211 421 -682 658 -1151 579z m185 -183 c16 -21 16 -32 -2 -57 -11
-17 -29 -22 -97 -28 -113 -9 -188 -30 -287 -79 -250 -122 -423 -369 -447 -639
-8 -92 -12 -106 -35 -118 -16 -9 -26 -8 -46 5 -26 17 -26 18 -20 114 19 309
213 589 514 740 78 39 189 69 290 80 87 9 112 6 130 -18z"/>
<path d="M8640 3088 c0 -24 7 -52 15 -62 8 -11 15 -32 15 -47 0 -14 7 -44 16
-65 18 -43 163 -194 186 -194 9 0 21 -7 28 -15 7 -8 29 -15 49 -15 20 0 42 -5
48 -11 6 -6 39 -13 74 -16 35 -3 74 -12 86 -19 33 -21 246 -20 263 1 8 10 31
15 67 15 29 0 70 7 90 15 19 8 43 15 53 15 10 0 23 7 30 15 7 8 23 15 35 15
13 0 25 7 29 15 3 8 13 15 23 15 21 0 123 96 123 115 0 7 7 18 15 25 8 7 15
21 15 31 0 10 6 22 13 26 17 10 50 122 45 153 -3 25 -4 25 -127 28 -145 3
-155 -2 -165 -79 -9 -69 -87 -189 -121 -189 -7 0 -37 -13 -68 -30 -55 -29 -60
-30 -195 -30 -106 0 -143 3 -158 15 -10 8 -26 15 -35 15 -23 0 -129 99 -129
120 0 9 -7 23 -15 30 -7 6 -17 33 -20 58 -12 95 -7 92 -155 92 l-130 0 0 -42z"/>
<path d="M12570 2969 c-19 -6 -66 -14 -105 -18 -38 -3 -77 -10 -85 -15 -8 -6
-32 -13 -55 -17 -49 -8 -105 -30 -123 -46 -7 -7 -22 -13 -31 -13 -10 0 -24 -7
-31 -15 -7 -8 -19 -15 -27 -15 -7 0 -24 -10 -36 -21 -12 -12 -35 -27 -50 -34
-32 -13 -237 -210 -237 -226 0 -6 -9 -23 -21 -37 -36 -48 -69 -103 -69 -116 0
-8 -7 -19 -15 -26 -8 -7 -15 -20 -15 -29 0 -9 -7 -29 -15 -45 -8 -15 -15 -36
-15 -45 0 -9 -7 -29 -15 -45 -8 -15 -15 -38 -15 -50 -1 -11 -7 -32 -15 -46 -8
-14 -14 -53 -15 -91 0 -41 -5 -72 -15 -85 -19 -26 -22 -443 -3 -477 7 -12 16
-56 20 -97 8 -92 29 -185 46 -202 6 -6 12 -26 12 -44 0 -17 7 -37 15 -44 8 -7
15 -22 15 -34 0 -12 7 -31 15 -42 8 -10 15 -24 15 -31 0 -23 126 -198 180
-251 56 -55 181 -145 218 -156 11 -4 26 -13 32 -21 7 -8 23 -15 36 -15 14 0
32 -4 42 -9 42 -21 91 -34 148 -40 66 -7 94 -22 94 -52 0 -18 12 -19 230 -19
221 0 230 1 230 19 0 32 38 51 101 51 31 0 70 7 85 15 16 8 46 15 66 15 20 0
40 4 43 10 3 6 17 10 30 10 12 0 26 7 29 16 10 27 7 212 -4 219 -6 4 -24 -1
-42 -9 -17 -9 -46 -16 -63 -16 -18 0 -38 -6 -44 -14 -6 -7 -41 -16 -78 -19
-37 -4 -71 -11 -77 -17 -6 -6 -94 -10 -232 -10 -177 0 -227 3 -250 15 -16 8
-38 15 -49 15 -11 0 -29 7 -39 15 -11 8 -30 15 -42 15 -12 0 -27 7 -34 15 -7
8 -19 15 -26 15 -8 0 -14 4 -14 10 0 5 -12 13 -27 16 -27 7 -153 125 -153 143
0 5 -16 28 -35 51 -19 23 -35 48 -35 55 0 7 -7 18 -15 25 -8 7 -15 25 -15 40
0 15 -7 33 -15 40 -8 7 -15 20 -15 30 0 10 -7 34 -15 53 -8 20 -15 52 -15 70
0 19 -7 40 -15 47 -12 10 -15 38 -15 135 0 82 -5 136 -15 164 -12 36 -12 47 0
88 9 30 15 91 15 160 0 86 3 115 15 127 8 8 15 32 15 53 0 22 7 48 15 59 8 10
15 34 15 52 0 20 6 35 15 38 8 4 15 16 15 29 0 12 7 28 15 35 8 7 15 18 15 25
0 7 7 18 15 25 8 7 15 19 15 28 0 8 15 32 33 53 17 22 47 57 65 79 35 41 175
140 199 140 8 0 21 7 29 15 9 8 24 15 35 15 11 0 34 8 52 17 47 25 446 24 494
0 18 -10 46 -17 63 -17 18 0 33 -6 36 -15 4 -8 17 -15 30 -15 21 0 68 -17 117
-41 25 -14 54 6 62 41 4 16 11 32 16 35 5 4 9 17 9 29 0 13 8 34 18 47 18 24
45 81 40 83 -2 0 -18 9 -36 19 -19 9 -39 17 -47 17 -7 0 -18 7 -25 15 -7 8
-24 15 -39 15 -14 0 -39 7 -55 15 -15 8 -45 15 -65 15 -21 0 -46 7 -57 15 -12
9 -43 14 -89 15 -40 0 -76 5 -82 11 -16 16 -238 21 -283 8z"/>
<path d="M3182 2939 l-23 -9 7 -732 c3 -403 9 -956 13 -1228 l6 -495 140 0
140 0 1 935 c1 698 4 942 13 958 20 37 49 28 61 -20 14 -54 39 -128 51 -150 5
-9 12 -35 15 -57 4 -23 13 -46 20 -52 8 -6 14 -24 14 -40 0 -15 5 -31 10 -34
6 -3 10 -21 10 -39 0 -20 8 -40 20 -51 12 -11 20 -31 20 -51 0 -18 5 -36 10
-39 6 -3 10 -19 10 -34 0 -15 9 -38 20 -51 11 -13 20 -32 20 -43 0 -20 24
-100 47 -154 7 -17 13 -40 13 -50 0 -10 5 -24 11 -30 6 -6 15 -29 19 -50 17
-77 33 -128 46 -144 8 -8 14 -29 14 -46 0 -17 7 -36 15 -43 8 -7 15 -26 15
-42 0 -16 7 -36 15 -44 8 -9 15 -27 15 -42 0 -15 7 -36 15 -46 8 -11 15 -32
15 -47 0 -14 7 -32 15 -39 8 -7 15 -27 15 -45 0 -18 7 -38 15 -45 8 -7 15 -24
15 -39 0 -14 7 -35 15 -45 8 -11 15 -33 15 -49 0 -15 7 -35 15 -43 8 -9 15
-27 15 -40 0 -14 5 -35 12 -47 7 -12 14 -40 17 -62 l6 -40 160 0 160 0 3 30
c2 17 8 34 13 39 5 6 9 21 9 34 0 13 6 36 14 50 17 33 42 106 51 150 4 17 10
32 15 32 4 0 11 16 15 36 3 20 10 44 15 53 12 24 38 101 45 138 3 17 13 34 21
37 8 3 14 17 14 31 0 32 28 123 47 150 7 11 13 29 13 41 0 12 7 35 15 50 8 16
15 39 15 50 0 12 6 27 14 33 8 6 16 26 19 44 2 18 16 63 31 101 14 38 26 77
26 86 0 10 7 23 15 30 8 7 15 24 15 39 1 14 7 37 15 51 8 14 14 38 15 53 0 15
7 30 15 33 8 4 15 18 15 33 1 14 7 37 15 51 8 14 14 37 15 51 0 15 7 32 15 39
8 7 15 22 15 34 0 11 7 34 15 50 8 15 15 38 15 50 0 12 7 31 15 42 8 10 15 31
15 45 0 14 7 34 15 45 8 10 15 31 15 45 0 15 7 32 15 39 8 7 15 27 15 45 0 18
7 38 15 45 8 7 15 26 15 42 0 22 11 41 39 69 41 41 61 48 80 25 14 -17 9 -306
-8 -486 -7 -75 -10 -380 -9 -885 l3 -770 150 0 150 0 0 1235 0 1235 -234 3
c-229 2 -235 2 -258 -20 -13 -12 -23 -33 -23 -48 0 -14 -6 -34 -13 -45 -7 -11
-21 -49 -31 -85 -10 -36 -22 -72 -27 -80 -11 -18 -12 -21 -33 -95 -10 -33 -24
-73 -32 -90 -22 -49 -44 -118 -44 -142 0 -12 -4 -24 -8 -27 -5 -3 -25 -58 -46
-123 -21 -65 -44 -131 -51 -148 -8 -16 -17 -43 -21 -60 -4 -16 -10 -34 -14
-40 -4 -5 -10 -25 -14 -44 -3 -19 -12 -42 -20 -50 -7 -9 -16 -29 -19 -46 -11
-64 -26 -107 -41 -124 -9 -10 -16 -28 -16 -40 0 -28 -30 -120 -41 -127 -5 -3
-9 -15 -9 -27 0 -12 -7 -35 -15 -51 -9 -16 -20 -46 -24 -65 -10 -38 -26 -87
-46 -136 -16 -37 -31 -89 -40 -133 -4 -18 -13 -36 -21 -39 -8 -3 -14 -14 -14
-25 0 -11 -7 -44 -15 -73 -16 -53 -46 -85 -80 -85 -27 0 -65 46 -65 78 0 17
-6 32 -15 36 -9 3 -15 19 -15 41 0 20 -7 43 -15 51 -8 9 -15 28 -15 43 0 16
-7 34 -15 41 -8 7 -15 27 -15 44 0 17 -7 40 -15 50 -8 11 -15 32 -15 47 0 14
-6 32 -14 38 -8 7 -16 28 -19 49 -2 20 -16 69 -31 107 -14 39 -26 79 -26 91 0
11 -5 25 -11 31 -14 14 -48 111 -49 139 0 11 -7 29 -15 40 -8 10 -15 31 -15
45 0 14 -7 34 -15 45 -8 10 -15 31 -15 45 0 15 -7 32 -15 39 -8 7 -15 20 -15
29 0 20 -27 107 -46 144 -8 16 -14 41 -14 56 0 15 -9 36 -20 46 -12 11 -20 31
-20 51 0 18 -4 36 -10 39 -5 3 -10 18 -10 33 0 15 -6 37 -14 48 -8 11 -17 37
-21 57 -4 21 -11 40 -16 43 -5 3 -9 19 -9 36 0 16 -9 41 -20 55 -11 14 -20 35
-20 46 0 24 -16 79 -36 122 -8 17 -17 46 -20 65 -4 19 -12 42 -19 50 -7 8 -15
23 -18 33 -6 15 -24 17 -194 16 -103 0 -198 -4 -211 -10z"/>
<path d="M6945 2363 c-22 -2 -44 -9 -49 -14 -6 -5 -33 -9 -61 -9 -30 0 -59 -6
-71 -15 -10 -8 -33 -15 -50 -15 -17 0 -37 -6 -43 -14 -7 -8 -25 -17 -40 -21
-16 -3 -39 -17 -51 -31 -13 -13 -31 -24 -39 -24 -19 0 -179 -154 -203 -196
-10 -16 -22 -36 -27 -44 -5 -8 -12 -22 -15 -30 -3 -8 -10 -22 -15 -30 -29 -51
-41 -81 -41 -103 0 -13 -7 -30 -15 -37 -8 -7 -15 -29 -15 -50 0 -21 -7 -57
-15 -80 -11 -33 -15 -91 -15 -250 0 -162 3 -215 15 -243 8 -20 15 -56 15 -80
0 -27 6 -49 15 -57 8 -7 15 -20 15 -30 0 -22 37 -107 50 -115 6 -3 10 -17 10
-30 0 -13 6 -28 14 -32 7 -4 24 -26 38 -48 35 -56 179 -191 222 -209 20 -8 36
-20 36 -25 0 -6 9 -11 20 -11 11 0 28 -4 38 -9 50 -25 95 -41 118 -41 39 0 64
-18 64 -45 l0 -25 170 0 170 0 0 25 c0 30 26 45 77 45 22 0 48 7 59 15 10 8
27 15 37 15 16 0 36 8 77 32 8 4 26 14 39 20 13 7 38 24 55 38 49 39 186 180
186 190 0 5 14 32 30 60 17 28 30 56 30 63 0 7 7 21 15 31 8 11 15 32 15 47 0
14 7 32 15 39 9 8 15 30 15 59 0 26 7 56 15 67 21 28 21 470 0 498 -8 11 -15
37 -15 58 0 35 -13 74 -46 141 -8 16 -14 36 -14 44 0 19 -68 133 -80 133 -4 0
-13 14 -20 30 -16 38 -113 133 -160 157 -19 10 -36 21 -38 25 -4 7 -66 37
-194 92 -20 9 -58 16 -85 16 -27 0 -53 4 -58 9 -12 12 -143 21 -200 14z m228
-249 c29 -9 67 -23 86 -31 49 -22 131 -83 131 -97 0 -7 14 -25 30 -41 17 -16
30 -37 30 -47 0 -10 9 -27 20 -38 11 -11 20 -33 20 -49 0 -16 7 -34 15 -41 9
-8 15 -30 15 -59 0 -26 5 -52 11 -58 16 -16 16 -500 0 -516 -6 -6 -11 -27 -11
-47 0 -19 -7 -48 -15 -64 -8 -15 -15 -37 -15 -47 0 -11 -8 -27 -17 -37 -10 -9
-24 -35 -32 -57 -13 -41 -100 -139 -136 -156 -11 -5 -27 -13 -35 -17 -73 -41
-80 -42 -243 -42 l-161 0 -73 36 c-41 20 -82 47 -92 60 -11 13 -23 24 -28 24
-10 0 -73 94 -73 110 0 7 -9 23 -20 37 -11 14 -20 34 -20 43 0 10 -7 31 -15
46 -8 16 -15 47 -15 69 0 22 -7 49 -15 59 -22 29 -22 448 0 490 8 15 15 45 15
65 0 20 7 49 15 65 8 15 15 38 15 51 0 12 9 30 20 40 11 10 20 25 20 33 0 8
12 29 28 48 15 18 37 46 48 61 23 30 121 84 194 106 65 21 239 21 303 1z"/>
<path d="M16570 2359 c-25 -6 -70 -13 -100 -16 -30 -3 -62 -11 -70 -18 -8 -7
-28 -16 -45 -19 -33 -7 -109 -49 -201 -110 -60 -40 -93 -73 -94 -91 0 -6 -8
-18 -17 -27 -34 -31 -73 -76 -73 -86 0 -5 -13 -34 -30 -65 -16 -31 -30 -68
-30 -82 0 -14 -7 -28 -15 -31 -9 -4 -15 -20 -15 -43 -1 -20 -7 -47 -15 -61 -8
-14 -14 -52 -15 -86 0 -34 -7 -81 -15 -104 -9 -26 -15 -78 -15 -135 0 -60 5
-105 15 -128 8 -20 15 -65 15 -99 0 -36 6 -75 15 -92 8 -15 15 -43 15 -62 0
-18 4 -35 9 -38 11 -7 51 -88 51 -103 0 -6 7 -16 15 -23 8 -7 15 -20 15 -30 0
-10 7 -20 15 -23 8 -4 23 -24 34 -45 20 -39 116 -132 136 -132 6 0 22 -11 37
-25 14 -13 38 -27 51 -30 14 -4 28 -13 31 -21 3 -8 15 -14 26 -14 11 0 28 -4
38 -9 55 -28 97 -41 130 -41 44 0 82 -23 82 -51 0 -18 9 -19 210 -19 l210 0 0
25 c0 31 26 45 87 45 26 1 59 7 73 15 14 8 37 14 52 15 15 0 30 5 33 10 3 6
17 10 31 10 14 0 38 10 54 22 30 22 30 23 30 120 l0 98 -28 0 c-16 0 -37 -7
-48 -15 -10 -8 -33 -15 -50 -15 -17 0 -37 -6 -43 -14 -7 -8 -34 -17 -61 -21
-28 -4 -52 -11 -56 -16 -3 -5 -113 -9 -247 -9 -197 1 -246 3 -261 15 -11 8
-28 15 -39 15 -11 0 -36 13 -57 30 -21 16 -45 30 -53 30 -8 0 -17 7 -21 15 -3
8 -10 15 -17 15 -13 0 -48 40 -49 56 0 7 -13 26 -30 44 -16 18 -30 40 -30 50
0 10 -7 23 -15 30 -8 7 -15 22 -15 34 0 11 -8 35 -17 51 -9 17 -19 68 -24 115
-4 47 -10 97 -14 111 -5 21 -1 34 23 60 l30 34 329 2 c180 1 451 2 601 2 l273
1 -5 173 c-6 209 -13 282 -32 298 -8 6 -14 18 -14 26 0 17 -39 106 -50 113 -4
3 -15 22 -25 43 -9 20 -21 37 -25 37 -5 0 -24 25 -45 55 -20 30 -40 55 -45 55
-5 0 -30 17 -57 37 -57 44 -150 93 -178 93 -11 0 -29 7 -39 15 -11 8 -40 15
-64 15 -24 0 -51 4 -60 9 -28 15 -153 21 -202 10z m204 -218 c128 -28 240
-128 276 -246 7 -22 19 -52 27 -68 19 -37 29 -196 14 -225 l-12 -22 -448 0
c-400 0 -450 2 -455 16 -12 32 -6 150 9 170 8 10 15 28 15 39 0 11 14 47 30
79 17 32 30 64 30 71 0 17 130 132 175 155 21 11 58 22 84 26 25 4 55 11 66
15 24 10 119 5 189 -10z"/>
<path d="M8432 2332 c-10 -7 -12 -200 -10 -933 l3 -924 204 -3 c179 -2 206 0
222 14 11 10 19 24 19 31 0 8 9 27 21 41 32 43 69 102 69 112 0 6 20 39 45 74
25 36 45 69 45 74 0 5 7 15 15 22 8 7 15 20 15 30 0 9 10 25 21 36 12 10 28
34 36 51 7 18 18 33 23 33 6 0 10 9 10 19 0 11 6 26 13 33 7 7 27 35 43 63 16
27 35 59 41 70 7 11 19 34 27 50 8 17 24 39 35 49 12 11 21 26 21 35 0 9 9 24
20 34 11 9 20 26 20 37 0 11 4 20 9 20 12 0 71 96 71 115 0 7 8 20 18 27 18
14 31 34 69 111 13 26 28 47 34 47 5 0 9 8 9 18 0 10 13 32 30 48 16 16 30 34
30 40 0 19 40 94 50 94 6 0 10 6 10 13 0 40 93 65 120 32 16 -19 8 -282 -9
-314 -8 -13 -11 -209 -11 -590 l0 -571 145 0 145 0 -2 933 -3 932 -180 3
c-199 3 -225 0 -225 -26 0 -10 -9 -25 -20 -35 -11 -9 -20 -24 -20 -32 0 -9
-10 -26 -22 -38 -26 -25 -58 -82 -58 -102 0 -8 -8 -20 -17 -27 -17 -12 -35
-41 -71 -113 -9 -16 -21 -34 -29 -38 -7 -4 -13 -14 -13 -22 0 -8 -13 -30 -30
-48 -16 -19 -30 -39 -30 -44 0 -16 -35 -79 -58 -103 -12 -13 -22 -29 -22 -35
0 -7 -9 -22 -20 -35 -11 -13 -20 -27 -20 -31 0 -4 -20 -37 -45 -73 -25 -37
-45 -72 -45 -80 0 -7 -7 -19 -15 -26 -8 -7 -15 -18 -15 -25 0 -6 -9 -20 -20
-30 -10 -9 -24 -32 -30 -50 -6 -18 -17 -36 -25 -39 -8 -3 -15 -14 -15 -24 0
-10 -10 -27 -21 -38 -12 -10 -28 -32 -36 -49 -28 -60 -46 -90 -66 -110 -11
-11 -29 -40 -41 -65 -59 -123 -108 -180 -152 -180 -48 0 -59 26 -48 114 5 39
9 370 9 736 l0 665 -130 3 c-71 1 -136 -2 -143 -6z"/>
<path d="M13857 2334 c-4 -4 -7 -425 -7 -936 l0 -928 504 0 c425 0 509 2 539
15 20 8 56 15 81 15 25 0 48 5 51 10 3 6 19 10 35 10 16 0 31 4 34 9 3 4 31
21 62 37 60 30 194 157 194 183 0 9 9 30 19 47 23 38 33 96 33 194 0 103 -11
162 -33 183 -11 10 -19 25 -19 33 0 21 -87 103 -117 110 -13 4 -26 10 -29 15
-3 5 -13 9 -23 9 -10 0 -24 7 -31 15 -7 8 -25 15 -40 15 -15 0 -47 10 -71 23
-83 44 -59 101 59 139 52 17 84 35 119 68 68 63 109 119 118 160 13 65 17 192
6 203 -6 6 -11 27 -11 47 0 24 -10 51 -27 77 -16 21 -33 48 -39 59 -6 10 -25
26 -42 35 -17 9 -47 28 -66 43 -19 14 -41 26 -50 26 -8 0 -18 5 -21 10 -3 6
-17 10 -31 10 -13 0 -41 9 -61 20 -27 14 -57 20 -103 20 -40 0 -71 5 -78 13
-10 9 -123 13 -480 15 -257 2 -471 0 -475 -4z m955 -248 c98 -26 188 -88 188
-129 0 -11 8 -29 18 -40 24 -27 24 -157 -1 -185 -9 -10 -17 -26 -17 -35 0 -35
-116 -117 -165 -117 -11 0 -30 -7 -42 -15 -19 -13 -67 -15 -320 -13 l-298 3
-3 249 c-2 245 -2 250 20 273 l21 23 273 0 c204 0 287 -4 326 -14z m-35 -759
c18 -9 45 -17 62 -17 54 0 191 -83 191 -116 0 -6 7 -17 15 -24 8 -7 15 -27 15
-44 1 -17 7 -42 15 -56 19 -33 18 -110 0 -134 -8 -11 -15 -30 -15 -42 0 -13
-5 -36 -12 -51 -17 -38 -89 -113 -109 -113 -9 0 -22 -6 -28 -14 -7 -8 -30 -17
-52 -21 -21 -4 -41 -11 -45 -16 -9 -14 -617 -12 -632 3 -9 9 -12 92 -12 311
l0 300 25 23 c13 12 32 25 42 28 10 2 128 4 263 2 209 -2 250 -4 277 -19z"/>
<path d="M17747 2333 c-4 -3 -7 -55 -7 -114 0 -88 3 -108 16 -113 9 -3 139 -6
289 -6 274 0 274 0 287 -22 10 -18 14 -195 18 -813 l5 -790 150 0 150 0 5 791
c5 761 6 793 24 813 19 21 27 21 338 21 l318 0 0 120 0 120 -793 0 c-437 0
-797 -3 -800 -7z"/>
<path d="M1383 593 l-553 -3 0 -70 0 -70 610 0 610 0 0 75 0 75 -57 -2 c-32
-2 -307 -4 -610 -5z"/>
<path d="M830 220 l0 -70 610 0 610 0 0 70 0 70 -610 0 -610 0 0 -70z"/>
</g>
</svg>
