<?xml version="1.0" standalone="no"?>
<!DOCTYPE svg PUBLIC "-//W3C//DTD SVG 20010904//EN"
 "http://www.w3.org/TR/2001/REC-SVG-20010904/DTD/svg10.dtd">
<svg version="1.0" xmlns="http://www.w3.org/2000/svg"
 width="171.000000pt" height="46.000000pt" viewBox="0 0 171.000000 46.000000"
 preserveAspectRatio="xMidYMid meet">

<g transform="translate(0.000000,46.000000) scale(0.100000,-0.100000)"
fill="#000000" stroke="none">
<path d="M119 421 c-20 -16 -24 -33 -35 -137 -7 -66 -13 -144 -13 -174 0 -48
1 -53 13 -37 8 10 17 44 21 75 3 31 9 67 12 80 6 24 6 24 34 -8 l29 -31 31 18
c17 10 44 33 60 52 16 19 31 32 34 29 3 -3 -1 -46 -9 -94 -18 -103 -20 -132
-7 -119 14 15 71 248 71 291 0 33 -2 35 -16 23 -9 -8 -27 -30 -39 -49 -35 -55
-81 -100 -103 -100 -29 0 -53 58 -54 135 0 36 -2 65 -3 65 -2 0 -13 -8 -26
-19z"/>
<path d="M703 355 c-8 -22 0 -27 28 -16 18 7 20 10 6 10 -10 1 -15 6 -12 11 3
6 1 10 -5 10 -6 0 -13 -7 -17 -15z"/>
<path d="M796 329 c-4 -9 -17 -57 -29 -107 -25 -98 -25 -181 -2 -162 8 6 12
17 9 24 -3 7 5 59 16 115 20 97 24 168 6 130z"/>
<path d="M648 268 c-3 -29 -4 -66 -3 -83 2 -16 4 -42 4 -56 1 -15 10 -37 20
-50 l19 -24 26 24 c31 29 35 53 5 25 -20 -18 -21 -18 -35 1 -11 14 -14 45 -13
108 2 100 -15 140 -23 55z"/>
<path d="M1203 305 c-39 -17 -44 -30 -8 -21 24 6 35 -7 15 -19 -5 -3 -10 -19
-10 -35 0 -16 -7 -35 -15 -44 -9 -9 -11 -17 -5 -21 14 -9 12 -89 -2 -103 -10
-10 -10 -15 2 -22 8 -5 17 -5 20 -1 3 5 24 14 47 20 22 6 52 20 64 30 20 16
21 21 10 34 -7 9 -32 24 -57 33 -24 9 -44 19 -44 23 0 3 27 23 60 43 42 26 60
43 60 58 0 38 -76 52 -137 25z m95 -23 c7 -5 10 -15 7 -23 -6 -17 -72 -55 -81
-47 -3 3 -2 22 1 42 6 31 11 36 34 36 14 0 32 -4 39 -8z m-33 -146 c19 -8 35
-17 35 -20 0 -6 -75 -46 -85 -46 -3 0 -5 18 -5 40 0 44 5 47 55 26z"/>
<path d="M1442 300 c-39 -24 -51 -52 -62 -150 -12 -100 -3 -111 74 -86 55 17
95 46 45 32 -13 -3 -43 -9 -67 -13 l-43 -6 7 39 c9 52 9 52 52 59 59 10 67 14
54 27 -9 9 -21 9 -49 0 -20 -6 -38 -10 -40 -9 -1 2 2 20 8 41 11 40 46 62 81
50 15 -5 19 -2 16 13 -5 25 -37 27 -76 3z"/>
<path d="M1569 313 c-16 -3 -29 -12 -32 -24 -5 -17 -1 -20 26 -17 19 2 31 -1
30 -8 -10 -55 -14 -216 -6 -211 10 6 24 112 26 195 1 40 3 43 24 39 30 -6 30
19 1 27 -13 3 -27 5 -33 4 -5 0 -22 -3 -36 -5z"/>
<path d="M500 293 c-19 -13 -24 -13 -31 -2 -6 10 -9 9 -15 -6 -4 -11 -15 -38
-24 -61 -12 -29 -16 -57 -12 -95 8 -95 38 -103 114 -31 42 41 51 55 55 93 9
81 -38 136 -87 102z m59 -57 c26 -56 -27 -156 -82 -156 -38 0 -48 54 -27 132
18 64 83 78 109 24z"/>
<path d="M1065 298 c-64 -35 -97 -90 -97 -160 0 -82 50 -115 121 -78 22 11 42
24 46 30 9 15 -6 12 -24 -4 -30 -27 -67 -30 -90 -7 -28 28 -35 61 -21 111 18
68 69 106 108 82 10 -7 10 -14 -3 -38 -8 -16 -15 -42 -15 -59 0 -27 1 -28 17
-13 22 23 31 127 12 139 -18 11 -30 11 -54 -3z"/>
</g>
</svg>
