<?xml version="1.0" standalone="no"?>
<!DOCTYPE svg PUBLIC "-//W3C//DTD SVG 20010904//EN"
 "http://www.w3.org/TR/2001/REC-SVG-20010904/DTD/svg10.dtd">
<svg version="1.0" xmlns="http://www.w3.org/2000/svg"
 width="30.000000pt" height="29.000000pt" viewBox="0 0 30.000000 29.000000"
 preserveAspectRatio="xMidYMid meet">

<g transform="translate(0.000000,29.000000) scale(0.100000,-0.100000)"
fill="#000000" stroke="none">
<path d="M112 263 c-13 -5 -42 -55 -42 -72 0 -23 53 -71 79 -71 28 0 62 29 74
63 8 22 -16 72 -38 81 -19 7 -54 7 -73 -1z m78 -39 c10 -11 11 -23 4 -42 -8
-22 -16 -27 -44 -27 -28 0 -36 5 -44 27 -12 34 6 58 44 58 15 0 33 -7 40 -16z"/>
<path d="M97 85 c-38 -13 -87 -51 -87 -67 0 -16 25 -7 48 17 43 45 141 45 184
0 23 -25 48 -33 48 -16 0 17 -60 60 -98 71 -46 12 -48 12 -95 -5z"/>
</g>
</svg>
